<?xml version="1.0" encoding="utf-8"?>
<svg fill="#000000" height="800px" width="800px" version="1.1" id="Capa_1" viewBox="0 0 540 540" xmlns="http://www.w3.org/2000/svg">
  <path style="stroke: rgb(0, 0, 0); fill: rgb(255, 204, 0);" d="M 195.858 38.916 L 125.144 377.377 L 63.019 384.092 L 38.544 441.961 L 53.441 491.934 L 92.726 505.515 L 318.07 505.405 L 387.254 491.345 L 429.342 429.792 L 453.341 316.722 L 501.456 107.272 L 438.97 34.484 L 195.858 38.916 Z"/>
  <g transform="matrix(1, 0, 0, 1, 9.999908, 10)">
    <path d="M 502.491 96.312 L 435.967 18.645 C 433.987 16.328 431.095 15 428.051 15 L 183.763 15 C 178.8 15 174.529 18.496 173.546 23.358 L 105.118 361.862 L 63.88 361.862 C 36.472 361.862 15 393.301 15 433.436 C 15 473.56 36.472 505 63.88 505 L 337.495 505 C 378.316 505 414.541 473.509 425.593 428.417 L 504.701 105.572 C 505.499 102.308 504.68 98.862 502.491 96.312 Z M 471.916 92.667 L 422.308 92.667 L 433.344 47.631 L 471.916 92.667 Z M 297.606 484.149 L 63.88 484.149 C 50.624 484.149 35.851 463.318 35.851 433.436 C 35.851 403.544 50.624 382.714 63.88 382.714 L 113.646 382.714 L 297.607 382.714 C 289.263 395.582 284.171 413.428 284.171 433.436 C 284.17 453.439 289.262 471.281 297.606 484.149 Z M 405.342 423.448 C 396.587 459.184 368.685 484.149 337.495 484.149 L 330.79 484.149 C 320.075 484.149 308.284 468.052 305.592 443.862 L 366.98 443.862 C 372.738 443.862 377.406 439.199 377.406 433.436 C 377.406 393.302 356.931 361.862 330.791 361.862 L 126.387 361.862 L 192.29 35.851 L 414.764 35.851 L 398.897 100.613 C 396.98 107.179 402.44 113.518 409.022 113.518 L 481.288 113.518 L 405.342 423.448 Z M 305.591 423.01 C 308.284 398.809 320.074 382.713 330.789 382.713 C 341.5 382.713 353.29 398.809 355.982 423.01 L 305.591 423.01 Z" style="stroke: rgb(153, 0, 0); stroke-width: 10px; fill: rgb(153, 0, 0);"/>
  </g>
  <path style="fill: rgb(153, 0, 0); stroke: rgb(153, 0, 0); stroke-width: 10px;" d="M 201.597 156.164 L 422.693 156.454"/>
  <path style="fill: rgb(153, 0, 0); stroke: rgb(153, 0, 0); stroke-width: 10px;" d="M 193.064 209.092 L 414.16 209.382"/>
  <path style="fill: rgb(153, 0, 0); stroke: rgb(153, 0, 0); stroke-width: 10px;" d="M 180.76 260.937 L 401.856 261.227"/>
  <path style="fill: rgb(153, 0, 0); stroke: rgb(153, 0, 0); stroke-width: 10px;" d="M 168.62 316.964 L 389.716 317.254"/>
</svg>