<?xml version="1.0" encoding="utf-8"?>
<svg version="1.1" id="svg2" width="0px" height="0px" viewBox="2.6 5 32 32" xmlns="http://www.w3.org/2000/svg" xmlns:bx="https://boxy-svg.com">
  <path style="fill: rgb(255, 204, 0);" d="M 7.337 8.787 C 7.251 9.283 7.08 10.275 6.978 11.233 C 6.877 12.191 6.846 13.114 6.879 14.093 C 6.911 15.072 7.008 16.107 7.132 17.067 C 7.256 18.028 7.409 18.915 7.603 19.786 C 7.798 20.657 8.035 21.513 8.304 22.334 C 8.574 23.155 8.875 23.942 9.231 24.773 C 9.587 25.603 9.997 26.478 10.432 27.303 C 10.868 28.129 11.328 28.905 11.821 29.645 C 12.313 30.384 12.836 31.087 13.454 31.795 C 14.072 32.503 14.783 33.217 15.433 33.815 C 16.082 34.414 16.668 34.897 17.199 35.288 C 17.73 35.678 18.205 35.976 18.601 36.035 C 18.998 36.094 19.315 35.913 19.721 35.622 C 20.127 35.331 20.62 34.928 21.114 34.505 C 21.608 34.081 22.102 33.637 22.589 33.141 C 23.076 32.644 23.557 32.097 24.033 31.508 C 24.51 30.919 24.983 30.289 25.436 29.633 C 25.89 28.978 26.323 28.296 26.736 27.534 C 27.148 26.772 27.539 25.929 27.914 25.022 C 28.289 24.116 28.649 23.145 28.939 22.272 C 29.23 21.399 29.451 20.622 29.653 19.778 C 29.854 18.934 30.036 18.023 30.158 17.215 C 30.279 16.407 30.342 15.702 30.372 15.016 C 30.402 14.33 30.4 13.663 30.399 13.077 C 30.398 12.491 30.398 11.988 30.357 11.405 C 30.315 10.822 30.233 10.159 30.159 9.627 C 30.085 9.094 30.02 8.691 29.865 8.508 C 29.71 8.326 29.466 8.363 29.123 8.427 C 28.78 8.491 28.339 8.582 27.881 8.631 C 27.423 8.68 26.947 8.689 26.447 8.672 C 25.946 8.655 25.421 8.614 24.879 8.528 C 24.337 8.443 23.779 8.314 23.247 8.163 C 22.714 8.013 22.208 7.84 21.759 7.659 C 21.31 7.478 20.919 7.287 20.559 7.078 C 20.2 6.868 19.871 6.638 19.551 6.431 C 19.23 6.223 18.916 6.038 18.686 6.004 C 18.455 5.97 18.308 6.087 18.1 6.256 C 17.893 6.425 17.625 6.646 17.351 6.826 C 17.076 7.007 16.793 7.147 16.485 7.305 C 16.176 7.462 15.841 7.635 15.452 7.821 C 15.062 8.006 14.618 8.202 14.193 8.339 C 13.769 8.476 13.363 8.554 12.931 8.604 C 12.499 8.654 12.04 8.677 11.594 8.693 C 11.148 8.709 10.714 8.719 10.195 8.7 C 9.675 8.682 9.07 8.636 8.593 8.563 C 8.117 8.49 7.77 8.391 7.597 8.341 C 7.423 8.291 7.423 8.291 7.423 8.291 C 7.423 8.291 7.423 8.291 7.337 8.787" bx:d="M 7.423 8.291 U 6.908 11.267 U 6.815 14.038 U 7.104 17.141 U 7.561 19.802 U 8.272 22.368 U 9.177 24.729 U 10.407 27.352 U 11.789 29.682 U 13.36 31.789 U 15.495 33.931 U 17.255 35.38 U 18.68 36.274 U 19.633 35.733 U 21.114 34.526 U 22.596 33.192 U 24.037 31.549 U 25.456 29.659 U 26.757 27.615 U 27.93 25.086 U 29.008 22.175 U 29.673 19.846 U 30.217 17.111 U 30.404 14.998 U 30.398 12.995 U 30.398 11.484 U 30.15 9.497 U 29.955 8.288 U 29.221 8.401 U 27.898 8.672 U 26.472 8.697 U 24.895 8.572 U 23.221 8.185 U 21.701 7.668 U 20.528 7.097 U 19.543 6.409 U 18.603 5.852 U 18.16 6.205 U 17.358 6.866 U 16.511 7.288 U 15.506 7.809 U 14.174 8.399 U 12.958 8.631 U 11.581 8.7 U 10.281 8.728 U 8.464 8.59 U 7.423 8.291 U 7.423 8.291 Z 1@34fc1183"/>
  <g id="g8" transform="matrix(1.333333, 0, 0, -1.333333, -8.880453, 51.964867)">
    <g id="g10" transform="scale(0.1)">
      <path d="m 275.922,206.039 c -10.938,-26.687 -31.859,-63.211 -69.598,-86.226 -37.801,22.914 -58.832,59.394 -69.828,86.046 -10.129,24.555 -13.828,45.407 -14.762,51.532 4.516,2.539 9.02,3.769 14.11,3.773 0.015,0 0.035,0 0.051,0 3.554,0 8.589,-0.652 11.484,-1.488 l 1.609,-0.477 c 1.516,-0.441 3.082,-0.902 4.676,-1.355 5.586,-1.598 11.93,-3.231 16.695,-3.231 0.008,0 0.02,0 0.032,0 5.336,0.004 13.664,0.703 23.031,4.004 2.668,0.946 5.855,1.965 9.258,2.41 l 3.082,0.227 c 0.058,0 0.117,0 0.176,0 l 4.761,-0.43 c 2.899,-0.492 5.625,-1.371 7.914,-2.168 9.325,-3.265 17.633,-3.957 22.985,-3.957 0.019,0 0.043,0 0.066,0 3.231,0.008 7.43,0.739 13.223,2.297 v 0 c 2.379,0.641 4.781,1.352 7.07,2.027 l 2.691,0.797 c 2.864,0.832 8.114,1.516 11.7,1.524 0.011,0 0.023,0 0.035,0 5.078,0 9.726,-1.235 14.183,-3.649 -0.894,-6.007 -4.527,-26.961 -14.644,-51.656 z m -156.524,91.063 54.969,-12.047 c -0.48,-0.844 -0.937,-1.703 -1.355,-2.586 l -53.789,7.191 c 0.007,2.379 0.078,4.883 0.175,7.442 z m 1.899,20.101 57.098,-26.469 c -1.086,-1.254 -2.094,-2.582 -3.004,-3.98 l -55.711,15.621 c 0.324,4.762 0.847,9.734 1.617,14.828 z m 1.504,8.574 c 2.211,-0.48 6.574,-1.328 12.211,-1.922 l 46.363,-30.015 c -0.621,-0.567 -1.199,-1.168 -1.777,-1.777 l -57.352,30.722 c 0.184,1 0.348,1.988 0.555,2.992 z m 24.691,-2.586 c 5.961,0.008 11.586,0.512 16.821,1.493 l 23.41,-26.246 c -1.778,-1.024 -3.45,-2.196 -5.024,-3.497 l -38.636,28.309 c 1.125,-0.031 2.257,-0.062 3.429,-0.059 z m 29.871,5.043 15.532,-27.304 c -1.051,-0.403 -2.079,-0.852 -3.082,-1.348 l -19.747,26.41 c 2.555,0.684 4.989,1.438 7.297,2.242 z m 20.543,9.914 4.727,-34.937 c -2.617,-0.242 -5.145,-0.781 -7.578,-1.543 l -13.016,28.324 c 6.508,2.637 11.832,5.574 15.867,8.156 z m 8.145,5.973 c 1.156,-0.976 2.332,-1.894 3.512,-2.781 l -2.102,-38.027 c -0.441,0.015 -0.879,0.066 -1.324,0.066 -0.016,0 -0.035,0 -0.051,0 -0.457,0 -0.906,-0.051 -1.363,-0.066 l -2.106,38.085 c 1.516,1.125 2.684,2.079 3.434,2.723 z m 8.117,-5.973 c 5.551,-3.589 11.043,-6.246 15.746,-8.14 l -12.996,-28.285 c -2.402,0.746 -4.902,1.261 -7.473,1.496 z m 20.426,-9.894 c 3.32,-1.145 5.922,-1.848 7.34,-2.188 l -19.766,-26.445 c -1.008,0.496 -2.039,0.945 -3.094,1.348 z m 13.215,-3.383 c 5.793,-1.012 11.804,-1.543 17.949,-1.535 0.742,0 1.437,0.027 2.156,0.043 l -38.66,-28.324 c -1.563,1.281 -3.231,2.422 -4.984,3.433 z m 29.066,-0.961 c 5.844,0.598 10.227,1.508 12.441,2.051 0.207,-1.008 0.372,-1.996 0.563,-3 l -57.481,-30.793 c -0.593,0.609 -1.187,1.203 -1.82,1.77 z m 13.969,-6.547 c 0.804,-5.211 1.347,-10.293 1.676,-15.148 l -55.665,-15.61 c -0.972,1.489 -2.039,2.911 -3.207,4.243 z m 2.136,-27.781 -53.746,-7.187 c -0.414,0.871 -0.875,1.714 -1.355,2.543 l 54.922,12.035 c 0.101,-2.543 0.172,-5.024 0.179,-7.391 z m -16.394,-11.539 c -3.418,-0.004 -9.047,-0.621 -12.563,-1.648 l -2.488,-0.735 c -2.332,-0.687 -4.781,-1.414 -7.222,-2.066 v 0 c -3.336,-0.899 -8.094,-2.043 -11.836,-2.153 -0.422,3.172 -1.239,6.215 -2.418,9.079 l 52.882,3.984 c -0.078,-3.68 -0.238,-7.059 -0.449,-10.063 -4.828,2.243 -10.433,3.497 -15.906,3.602 z m -0.219,-6.754 c -0.012,0 -0.023,0 -0.035,0 -3.437,-0.008 -9.078,-0.625 -12.57,-1.648 l -2.426,-0.719 c -2.348,-0.695 -4.816,-1.426 -7.27,-2.082 l 0.407,-1.52 -0.407,1.52 c -3.507,-0.942 -8.613,-2.192 -12.414,-2.192 -0.019,0 -0.043,0 -0.062,0 -5.098,0 -13.024,0.661 -21.949,3.782 -2.274,0.789 -5.289,1.769 -8.461,2.312 -1.809,0.309 -3.5,0.457 -5.188,0.457 -1.246,-0.004 -2.457,-0.086 -3.703,-0.25 v -0.004 c -3.664,-0.461 -7.07,-1.55 -9.918,-2.554 -8.937,-3.153 -16.894,-3.828 -21.992,-3.836 -0.008,0 -0.016,0 -0.027,0 -4.332,0 -10.434,1.57 -15.832,3.109 l -6.266,1.824 c -3.172,0.926 -8.477,1.617 -12.367,1.617 -0.024,0 -0.039,0 -0.063,0 -5.394,-0.003 -10.676,-1.335 -15.457,-3.734 -0.109,1.039 -0.226,2.16 -0.332,3.371 4.723,2.504 10.485,3.973 16.055,3.977 0.015,0 0.035,0 0.051,0 3.57,0 8.601,-0.653 11.492,-1.492 l 6.277,-1.829 0.43,1.512 -0.426,-1.512 c 5.883,-1.679 11.981,-3.23 16.699,-3.23 0.012,0 0.02,0 0.028,0 5.347,0.012 13.679,0.719 23.031,4.012 2.668,0.945 5.855,1.968 9.242,2.402 l 3.313,0.231 4.718,-0.418 c 2.946,-0.508 5.774,-1.43 7.914,-2.176 9.325,-3.27 17.633,-3.957 22.981,-3.957 0.023,0 0.043,0 0.066,0 3.227,0 7.305,0.707 13.215,2.297 v 0 c 2.469,0.656 4.945,1.39 7.305,2.089 l 2.476,0.731 c 2.86,0.836 8.102,1.519 11.688,1.523 0.008,0 0.023,0 0.031,0 5.371,0 10.984,-1.398 15.609,-3.793 -0.109,-1.281 -0.222,-2.464 -0.335,-3.554 -4.813,2.406 -10.122,3.734 -15.528,3.734 z m -70.105,6.668 -0.008,-0.238 -0.008,0.238 c -1.23,-0.008 -2.476,-0.094 -3.703,-0.254 v 0 c -3.688,-0.469 -7.082,-1.558 -9.918,-2.558 -7.676,-2.707 -14.617,-3.582 -19.66,-3.782 2.289,16.535 16.246,28.848 33.129,28.875 0.015,0 0.027,0 0.043,0 16.668,0 30.804,-12.476 33.144,-28.773 -5.015,0.207 -11.84,1.074 -19.386,3.719 -2.266,0.793 -5.274,1.769 -8.457,2.312 l -0.012,-0.07 0.008,0.07 c -1.813,0.309 -3.504,0.461 -5.172,0.461 z m -86.989,6.59 52.887,-3.984 c -1.164,-2.887 -1.965,-5.969 -2.379,-9.192 -4.273,0.168 -9.926,1.602 -15.008,3.051 l -6.269,1.824 c -3.176,0.922 -8.477,1.613 -12.359,1.613 -0.02,0 -0.04,0 -0.063,0 -5.609,-0.004 -11.391,-1.402 -16.316,-3.765 -0.231,3.109 -0.414,6.617 -0.493,10.453 z m 157.11,-20.063 c -0.016,0 -0.028,0 -0.039,0 -3.418,-0.007 -9.055,-0.625 -12.574,-1.648 l -2.704,-0.797 c -2.265,-0.672 -4.64,-1.375 -6.996,-2.008 l 0.41,-1.515 -0.41,1.515 c -5.519,-1.488 -9.465,-2.183 -12.414,-2.187 -0.015,0 -0.039,0 -0.062,0 -5.102,0 -13.035,0.656 -21.946,3.777 -2.421,0.844 -5.32,1.777 -8.46,2.309 -3.192,0.543 -5.961,0.609 -8.887,0.218 -3.699,-0.484 -7.094,-1.566 -9.922,-2.566 -8.953,-3.152 -16.902,-3.82 -21.992,-3.828 -0.008,0 -0.02,0 -0.028,0 -4.375,0 -10.457,1.574 -15.832,3.113 l -0.429,-1.512 0.425,1.512 c -1.582,0.449 -3.144,0.906 -4.644,1.348 l -1.625,0.476 c -3.188,0.922 -8.488,1.618 -12.356,1.618 -0.019,0 -0.039,0 -0.058,0 -5.262,-0.008 -9.953,-1.227 -14.606,-3.653 -0.121,0.793 -0.289,1.946 -0.476,3.407 4.601,2.523 9.777,3.898 15.07,3.902 0.02,0 0.035,0 0.055,0 3.578,0 8.617,-0.652 11.496,-1.492 l 6.269,-1.828 0.438,1.511 -0.434,-1.511 c 5.895,-1.68 11.993,-3.231 16.703,-3.231 0.008,0 0.02,0 0.032,0 5.34,0.008 13.676,0.715 23.027,4.012 2.688,0.945 5.887,1.969 9.246,2.402 l 3.082,0.227 c 0.067,0.004 0.129,0.004 0.196,0.004 l 4.75,-0.422 c 2.933,-0.504 5.773,-1.426 7.917,-2.176 9.34,-3.266 17.645,-3.953 22.985,-3.953 0.019,0 0.043,0 0.062,0 3.219,0 7.293,0.707 13.227,2.293 v 0.004 c 2.48,0.664 4.973,1.402 7.344,2.105 l 2.422,0.715 c 2.839,0.832 8.082,1.52 11.691,1.523 0.012,0 0.023,0 0.031,0 5.305,0 10.516,-1.363 15.141,-3.894 -0.172,-1.399 -0.332,-2.508 -0.449,-3.289 -4.629,2.312 -9.442,3.519 -14.676,3.519 z m 19.539,33.172 -0.309,5.43 c -0.355,5.016 -0.953,10.277 -1.808,15.648 l -0.606,3.653 c -0.347,1.937 -0.726,3.883 -1.156,5.84 l -0.359,1.636 -1.602,-0.465 c -0.059,-0.015 -2.652,-0.757 -7.027,-1.488 l -10.602,-1.207 c -2.105,-0.133 -4.34,-0.219 -6.703,-0.226 -6.168,-0.004 -12.207,0.55 -18.035,1.613 l -3.719,0.73 c -0.066,0.02 -0.137,0.028 -0.203,0.039 -0.074,0.02 -3.063,0.653 -7.605,2.2 l -4.946,1.836 c -4.937,1.98 -10.797,4.832 -16.609,8.726 l -4.86,3.535 c -0.91,0.723 -1.808,1.457 -2.699,2.239 l -1.078,0.941 -1.035,-0.984 c -0.031,-0.032 -0.902,-0.852 -2.559,-2.153 l -4.964,-3.574 c -4.051,-2.687 -9.692,-5.918 -16.711,-8.766 l -4.946,-1.843 c -2.386,-0.821 -4.894,-1.59 -7.539,-2.262 -0.066,-0.02 -0.14,-0.031 -0.203,-0.043 l -4.297,-0.938 c -5.047,-0.941 -10.484,-1.429 -16.25,-1.441 -2.816,0 -5.512,0.109 -8.031,0.289 l -10.621,1.234 c -4.199,0.676 -6.793,1.329 -6.848,1.34 l -1.578,0.399 -0.348,-1.586 c -0.339,-1.57 -0.628,-3.129 -0.918,-4.688 l -0.808,-4.746 c -0.824,-5.258 -1.402,-10.41 -1.75,-15.328 l -0.309,-5.465 c -0.109,-2.66 -0.168,-5.226 -0.179,-7.707 l 0.039,-5.293 c 0.3,-14.871 2.066,-25.125 2.211,-25.949 0.16,-1.266 3.304,-25.215 15.203,-54.09 11.183,-27.101 32.57,-64.215 71.101,-87.594 l 1.672,-1.011 1.664,1.011 c 38.469,23.481 59.766,60.653 70.867,87.786 11.829,28.906 14.914,52.863 15.067,54.125 0.144,0.82 1.863,10.961 2.148,25.679 l 0.031,5.262 c -0.011,2.465 -0.07,5.012 -0.183,7.656" style="fill: rgb(162, 26, 52); fill-opacity: 1; fill-rule: nonzero; stroke-width: 1.5px; stroke: rgb(153, 0, 0);" id="path12"/>
      <path d="m 250.859,223.438 c -0.48,-0.489 -1.121,-0.754 -1.804,-0.754 l -11.985,-0.02 c -1.41,0 -2.554,1.145 -2.562,2.547 0,1.41 1.148,2.559 2.551,2.559 l 1.949,0.007 c 0.008,-0.007 0.012,-0.019 0.015,-0.023 l 0.028,0.023 h 2.566 l 7.446,0.008 c 1.398,0 2.539,-1.144 2.539,-2.551 0,-0.679 -0.262,-1.32 -0.743,-1.796 z m -2.363,-4.383 c -0.453,-0.453 -1.074,-0.68 -1.851,-0.68 l -7.301,-0.016 c -1.231,0 -2.078,0.907 -2.403,2.411 0.047,0 0.086,-0.012 0.129,-0.012 l 11.985,0.019 c 0.07,0 0.129,0.036 0.195,0.043 -0.137,-0.734 -0.359,-1.367 -0.754,-1.765 z m -2.996,-30.86 -4.863,-0.015 -1.293,28.273 c 0,0 0,0 0.004,0 l 7.3,0.012 c 0.055,0 0.102,0.023 0.157,0.031 z m 3.203,-3.976 c 0.004,-1.137 -0.926,-2.067 -2.066,-2.074 l -6.969,-0.004 -0.008,-0.957 v 0.957 c -1.137,0 -2.058,0.929 -2.058,2.062 0,1.149 0.925,2.07 2.062,2.07 l 3.934,0.004 3.031,0.008 c 1.144,0 2.074,-0.922 2.074,-2.066 z m -5.637,-17.481 c -0.832,0 -1.511,0.676 -1.511,1.555 l -0.547,11.945 h 4.121 l -0.547,-11.98 c 0,-0.836 -0.68,-1.52 -1.516,-1.52 z m -9.625,67.028 c 0,1.578 0.645,2.89 1.329,4.281 0.808,1.656 1.71,3.488 1.343,5.793 1.164,-0.492 2.688,-1.324 3.805,-2.512 -0.02,-0.015 -0.031,-0.031 -0.051,-0.051 -0.273,-0.297 -0.566,-0.609 -0.797,-0.886 -0.054,-0.051 -4.886,-4.758 -1.414,-10.711 h -0.601 c -0.352,-0.004 -0.688,-0.055 -1.016,-0.133 -0.535,0.238 -2.59,1.32 -2.598,4.219 z m 10.461,10.203 c 0.27,0.765 0.274,1.578 0.141,2.344 1.961,-1.786 4.277,-4.614 4.301,-8.02 0.027,-4.219 -2.653,-7.461 -3.739,-8.605 h -0.675 c -0.844,1.16 -2.492,3.789 -0.754,6.714 0.347,0.594 1.926,3.024 2.129,3.489 0.254,0.57 0.226,1.093 0.226,1.093 -0.265,-0.429 -0.718,-0.933 -0.718,-0.933 -0.458,-0.5 -2.004,-2.106 -2.497,-2.699 -2.562,-3.11 -0.839,-6.504 -0.168,-7.668 l -2.218,-0.004 c -3.813,5.121 0.265,9.152 0.508,9.39 0.289,0.332 0.566,0.629 0.828,0.914 1.066,1.161 1.984,2.161 2.636,3.985 z m 5.668,-1.617 c 0.813,0.992 1.578,1.613 2.192,2.007 -0.481,-4.394 1.797,-8.773 1.843,-8.824 1.09,-3.765 -2.628,-5.59 -3.539,-5.972 -0.328,0.082 -0.664,0.128 -1.015,0.128 h -1.942 c 1.411,1.829 3.164,4.856 3.137,8.614 -0.012,1.597 -0.676,4.047 -0.676,4.047 z m 2.516,-13.875 c 2.141,1.316 4.414,3.878 3.281,7.765 -0.027,0.051 -2.726,5.25 -1.402,9.406 l 0.445,1.411 -1.465,-0.172 c -0.226,-0.028 -2.199,-0.364 -4.484,-2.922 -2.266,3.656 -5.91,5.91 -6.133,6.043 l -3.629,2.148 2.356,-3.5 c 0.422,-0.629 1.523,-2.722 1.054,-4.047 -0.261,-0.738 -0.574,-1.3 -0.953,-1.82 -2.41,2.449 -6.082,3.445 -6.246,3.488 l -1.898,0.496 0.789,-1.796 c 1.054,-2.426 0.222,-4.125 -0.742,-6.09 -0.711,-1.457 -1.52,-3.106 -1.52,-5.125 0.004,-2.617 1.301,-4.301 2.555,-5.254 -0.906,-0.813 -1.485,-1.981 -1.485,-3.297 0,-1.688 0.957,-3.133 2.34,-3.891 0.207,-2.25 1.199,-3.672 2.465,-4.355 l 1.328,-28.973 c -1.73,-0.426 -3.039,-1.922 -3.039,-3.789 0,-1.988 1.488,-3.566 3.395,-3.859 l 0.558,-12.094 c 0,-1.883 1.532,-3.418 3.41,-3.418 1.883,0 3.414,1.535 3.414,3.379 l 0.555,12.109 c 2,0.219 3.578,1.856 3.57,3.899 0,1.922 -1.394,3.449 -3.21,3.816 l 1.335,28.949 c 0.403,0.204 0.793,0.411 1.114,0.727 0.867,0.871 1.332,2.141 1.426,3.746 0.328,0.191 0.664,0.359 0.941,0.633 0.836,0.84 1.297,1.965 1.293,3.144 0,1.286 -0.551,2.43 -1.418,3.243" style="fill: rgb(162, 26, 52); fill-opacity: 1; fill-rule: nonzero; stroke-width: 1.5px; stroke: rgb(153, 0, 0);" id="path14"/>
      <path d="m 174.344,222.59 -11.981,-0.02 c -1.41,0 -2.554,1.145 -2.554,2.551 0,0.684 0.261,1.324 0.742,1.801 0.476,0.488 1.121,0.754 1.797,0.754 l 1.949,0.008 c 0.004,-0.008 0.008,-0.02 0.012,-0.028 l 0.031,0.028 h 2.574 l 3.766,0.004 v 0 0 h 3.668 c 1.398,0 2.547,-1.141 2.55,-2.547 0,-1.407 -1.148,-2.551 -2.554,-2.551 z m -0.531,-3.652 c -0.434,-0.438 -1.063,-0.657 -1.875,-0.657 l -7.297,-0.015 c -1.207,0 -2.071,0.922 -2.399,2.41 0.039,0 0.078,-0.016 0.121,-0.016 l 11.981,0.02 c 0.066,0 0.136,0.019 0.207,0.027 -0.137,-0.746 -0.348,-1.387 -0.738,-1.769 z m -3.02,-30.84 -4.855,-0.012 -1.309,28.277 c 0.008,0 0.008,-0.004 0.016,-0.004 l 7.296,0.012 c 0.055,0 0.094,0.024 0.145,0.024 z m 3.195,-3.977 c 0,-0.555 -0.211,-1.07 -0.601,-1.465 -0.387,-0.39 -0.907,-0.605 -1.465,-0.605 l -6.953,-0.004 -0.012,-0.957 v 0.957 c -1.141,0 -2.066,0.926 -2.066,2.062 0,1.145 0.925,2.071 2.066,2.071 l 3.934,0.004 3.027,0.007 c 1.141,0 2.07,-0.925 2.07,-2.07 z m -5.621,-17.476 c -0.84,0 -1.523,0.675 -1.523,1.554 l -0.551,11.946 h 4.133 l -0.555,-11.985 c 0,-0.832 -0.676,-1.515 -1.504,-1.515 z m -9.633,67.023 c 0,1.578 0.645,2.891 1.325,4.281 0.812,1.656 1.711,3.492 1.343,5.797 1.168,-0.492 2.696,-1.312 3.809,-2.5 -0.027,-0.027 -0.047,-0.051 -0.07,-0.078 -0.274,-0.297 -0.551,-0.602 -0.786,-0.875 -0.054,-0.051 -4.882,-4.758 -1.414,-10.707 h -0.593 c -0.317,-0.004 -0.606,-0.121 -0.91,-0.184 -0.211,0.082 -2.696,1.078 -2.704,4.266 z m 10.454,10.203 c 0.273,0.766 0.273,1.582 0.14,2.356 1.957,-1.782 4.281,-4.61 4.309,-8.032 0.035,-4.215 -2.657,-7.461 -3.746,-8.601 h -0.668 c -0.844,1.16 -2.485,3.785 -0.746,6.715 0.343,0.593 1.918,3.019 2.125,3.488 0.242,0.57 0.214,1.094 0.214,1.094 -0.257,-0.43 -0.714,-0.934 -0.714,-0.934 -0.461,-0.5 -2,-2.105 -2.489,-2.699 -2.566,-3.11 -0.84,-6.504 -0.175,-7.668 l -2.223,-0.004 c -3.813,5.113 0.265,9.152 0.512,9.391 0.281,0.32 0.554,0.617 0.812,0.898 1.07,1.16 1.996,2.164 2.649,3.996 z m 5.667,-1.617 c 0.813,0.992 1.583,1.617 2.196,2.012 -0.481,-4.395 1.793,-8.774 1.844,-8.828 1.085,-3.762 -2.633,-5.586 -3.54,-5.969 -0.332,0.078 -0.667,0.129 -1.019,0.129 l -1.934,-0.004 c 1.411,1.832 3.172,4.859 3.137,8.617 -0.012,1.594 -0.684,4.043 -0.684,4.043 z m 2.52,-13.871 c 2.137,1.32 4.41,3.879 3.277,7.762 -0.027,0.054 -2.718,5.253 -1.402,9.414 l 0.449,1.41 -1.469,-0.176 c -0.222,-0.027 -2.195,-0.359 -4.48,-2.922 -2.27,3.656 -5.914,5.91 -6.137,6.043 l -3.597,2.125 2.324,-3.476 c 0.453,-0.676 1.527,-2.727 1.055,-4.051 -0.258,-0.735 -0.575,-1.297 -0.95,-1.817 -2.41,2.45 -6.078,3.446 -6.242,3.489 l -1.894,0.496 0.781,-1.797 c 1.055,-2.43 0.226,-4.129 -0.742,-6.098 -0.707,-1.449 -1.516,-3.097 -1.516,-5.121 0.004,-2.812 1.414,-4.414 2.563,-5.262 -0.059,-0.05 -0.137,-0.074 -0.192,-0.132 -0.84,-0.84 -1.301,-1.965 -1.297,-3.153 0,-1.679 0.953,-3.137 2.332,-3.887 0.2,-2.035 1.106,-3.601 2.461,-4.359 l 1.34,-28.973 c -1.734,-0.425 -3.051,-1.921 -3.051,-3.789 0,-1.98 1.489,-3.562 3.395,-3.851 l 0.558,-12.102 c 0,-1.883 1.536,-3.422 3.426,-3.422 1.879,0 3.406,1.539 3.406,3.383 l 0.563,12.11 c 0.898,0.097 1.754,0.433 2.398,1.086 0.75,0.757 1.164,1.757 1.157,2.808 0,1.918 -1.391,3.445 -3.203,3.82 l 1.324,28.918 c 0.422,0.196 0.828,0.411 1.148,0.731 0.844,0.848 1.301,2.105 1.399,3.711 1.336,0.769 2.242,2.195 2.242,3.847 -0.004,1.278 -0.559,2.426 -1.426,3.235" style="fill: rgb(162, 26, 52); fill-opacity: 1; fill-rule: nonzero; stroke-width: 1.5px; stroke: rgb(153, 0, 0);" id="path16"/>
      <path d="m 217.266,217.844 c -0.743,-0.746 -1.731,-1.156 -2.786,-1.156 l -16.757,-0.028 c -2.176,0 -3.95,1.77 -3.957,3.945 0,2.18 1.773,3.954 3.945,3.954 0,0 11.164,-0.004 11.187,0.015 l 5.582,0.004 c 2.172,0 3.938,-1.762 3.938,-3.937 0,-1.055 -0.406,-2.047 -1.152,-2.797 z m -6.145,-6.66 -10.219,-0.012 h -0.004 c -1.628,0 -3.105,1.766 -3.679,3.633 0.168,-0.016 0.332,-0.051 0.504,-0.051 l 16.757,0.023 c 0.211,0 0.415,0.047 0.622,0.063 -0.614,-1.832 -2.27,-3.656 -3.981,-3.656 z m -1.254,-42.723 -7.515,-0.016 -1.879,40.879 c 0.144,-0.011 0.277,-0.062 0.425,-0.062 0,0 0.004,0 0.008,0 l 10.219,0.011 c 0.215,0 0.422,0.063 0.629,0.094 z m 4.496,-5.18 c 0,-1.804 -1.465,-3.269 -3.265,-3.269 l -9.731,-0.016 c -1.804,0 -3.273,1.469 -3.277,3.27 0,1.804 1.465,3.273 3.265,3.273 l 7.336,0.012 h 2.395 c 1.805,0 3.273,-1.465 3.277,-3.27 z m -5.761,-22.312 c 0,-0.668 -0.262,-1.293 -0.731,-1.77 -0.469,-0.472 -1.094,-0.73 -1.758,-0.73 -0.004,0 -0.008,0 -0.011,0 -0.661,0 -1.286,0.258 -1.758,0.726 -0.469,0.465 -0.731,1.094 -0.731,1.809 l -0.793,17.09 6.567,0.008 z m -16.325,91.594 c -0.004,2.292 0.914,4.167 1.883,6.152 1.25,2.547 2.535,5.172 1.699,8.594 1.672,-0.621 4.207,-1.821 6,-3.825 -0.214,-0.242 -0.429,-0.476 -0.66,-0.73 -0.363,-0.399 -0.75,-0.813 -1.086,-1.203 -0.078,-0.071 -6.929,-6.742 -1.578,-15.082 h -0.828 c -0.504,0 -0.98,-0.09 -1.445,-0.207 -0.434,0.164 -3.981,1.679 -3.985,6.301 z m 13.969,14.398 c 0.52,1.449 0.332,3.078 -0.043,4.457 2.942,-2.391 7.305,-6.887 7.344,-12.52 0.055,-6.183 -3.973,-10.902 -5.438,-12.418 h -0.476 c -0.789,1.188 -1.645,3.094 -1.645,5.274 -0.004,4.176 2.035,6.613 2.035,6.613 0,0 -2.578,-1.75 -3.027,-5.597 -0.207,-1.844 0.192,-3.786 1.395,-6.293 h -2.442 c -0.937,1.371 -3.449,5.328 -0.812,9.777 0.492,0.824 3.125,4.226 3.41,4.879 0.34,0.789 0.308,1.527 0.308,1.527 -0.367,-0.605 -1.003,-1.32 -1.003,-1.32 -0.641,-0.695 -2.797,-2.938 -3.481,-3.762 -3.91,-4.742 -0.687,-9.973 -0.023,-11.101 l -1.481,-0.008 c -5.738,7.5 0.289,13.441 0.617,13.761 0.383,0.446 0.758,0.848 1.114,1.235 1.476,1.601 2.75,2.984 3.648,5.496 z m 12.129,-0.914 c -1.234,-5.906 0.746,-10.774 0.805,-10.906 1.562,-5.43 -2.305,-8.102 -3.5,-8.778 -0.391,0.082 -0.793,0.125 -1.211,0.125 l -3.809,-0.008 c 1.985,2.403 4.836,6.809 4.785,12.434 -0.011,1.438 -0.273,2.793 -0.683,4.074 1.39,1.637 2.683,2.559 3.613,3.059 z m -0.629,-20.563 c 1.957,1.528 4.809,4.817 3.227,10.286 -0.024,0.054 -2.219,5.507 -0.305,11.511 l 0.449,1.414 -1.469,-0.179 c -0.121,-0.012 -2.668,-0.395 -5.664,-3.559 -2.886,6.039 -9.093,9.785 -9.429,9.984 l -3.16,1.868 1.855,-3.168 c 0.02,-0.036 2.074,-3.594 1.203,-6.039 -0.379,-1.067 -0.844,-1.895 -1.383,-2.649 -3.281,3.5 -8.285,4.703 -8.5,4.754 l -1.843,0.426 0.761,-1.738 c 1.551,-3.555 0.352,-6.004 -1.035,-8.84 -1.023,-2.094 -2.082,-4.258 -2.078,-6.996 0.004,-3.782 2.012,-6.133 3.789,-7.329 -1.387,-1.074 -2.297,-2.742 -2.297,-4.625 0,-2.292 1.348,-4.265 3.281,-5.226 0.313,-2.18 1.618,-4.406 3.454,-5.469 l -0.063,-0.004 1.91,-41.554 c -2.418,-0.43 -4.261,-2.539 -4.261,-5.086 0.003,-2.7 2.089,-4.899 4.726,-5.125 l 0.797,-17.184 c 0,-1.176 0.457,-2.281 1.289,-3.117 0.828,-0.824 1.934,-1.281 3.098,-1.281 0.007,0 0.011,0 0.019,0 1.168,0 2.27,0.461 3.102,1.296 0.832,0.833 1.289,1.942 1.285,3.071 l 0.789,17.199 c 2.762,0.102 4.973,2.371 4.973,5.164 -0.004,2.617 -1.969,4.758 -4.496,5.102 l 1.921,41.668 h -0.015 c 1.863,1.136 3.234,3.336 3.508,5.414 0.515,0.273 1.004,0.601 1.429,1.023 1.106,1.113 1.715,2.586 1.707,4.145 0,2.015 -1.019,3.793 -2.574,4.843" style="fill: rgb(162, 26, 52); fill-opacity: 1; fill-rule: nonzero; stroke-width: 1.5px; stroke: rgb(153, 0, 0);" id="path18"/>
    </g>
  </g>
</svg>